<mxfile host="app.diagrams.net" modified="2024-05-02T04:07:45.461Z" agent="Mozilla/5.0 (Macintosh; Intel Mac OS X 10_15_7) AppleWebKit/537.36 (KHTML, like Gecko) Chrome/124.0.0.0 Safari/537.36" etag="6dLSEgq8OtIGHMZ9AVat" version="24.0.7" type="github">
  <diagram name="Page-1" id="GGo7wWCSmxdjdC97QmG6">
    <mxGraphModel dx="954" dy="535" grid="1" gridSize="10" guides="1" tooltips="1" connect="1" arrows="1" fold="1" page="1" pageScale="1" pageWidth="827" pageHeight="1169" math="0" shadow="0">
      <root>
        <mxCell id="0" />
        <mxCell id="1" parent="0" />
      </root>
    </mxGraphModel>
  </diagram>
</mxfile>
